<svg id="Layer_1" data-name="Layer 1" xmlns="http://www.w3.org/2000/svg" viewBox="0 0 1500 500"><defs><style>.cls-1{fill:#fff;}</style></defs><title>g_ai_n_logo</title><path class="cls-1" d="M330.62,256.08H456.06v56.45a123.58,123.58,0,0,1-9.69,48.09h28.12a138.65,138.65,0,0,0,7.29-44.1V229.73H330.62Z"/><rect class="cls-1" x="1295.02" y="22.13" width="25.71" height="338.48"/><polygon class="cls-1" points="1017.8 22.13 1017.8 360.62 1043.52 360.62 1043.52 65.41 1228.54 360.62 1257.88 360.62 1045.4 22.13 1017.8 22.13"/><path class="cls-1" d="M330.62,47.85c46.41,0,86.55,25.71,108.5,63.35L461.71,98c-26.34-45.16-75.26-75.89-131.08-75.89-84,0-151.78,67.74-151.78,151.15V311.9a152.21,152.21,0,0,0,8,48.72h27.54a125,125,0,0,1-9.81-48.72V173.29C204.56,104.29,261,47.85,330.62,47.85Z"/><path class="cls-1" d="M663.46,22.13,551,360.62H815.48L703,22.13ZM607,323.81,682.9,94.89l76.52,228.93Z"/><rect class="cls-1" x="888.86" y="22.13" width="41.4" height="338.48"/><path class="cls-1" d="M211.46,431.41H224.6a5,5,0,0,1,5,5,2.49,2.49,0,1,0,5,0,10,10,0,0,0-10-10H211.46a10,10,0,0,0-10,10v30a10,10,0,0,0,10,10.07H224.6a10,10,0,0,0,10-10.07V451.52A2.55,2.55,0,0,0,232.1,449h-9.76a2.4,2.4,0,0,0-1.88.75,2.62,2.62,0,0,0-.62,1.74,2.34,2.34,0,0,0,2.5,2.49h7.27v12.46a5.13,5.13,0,0,1-5,5.1H211.46a5.13,5.13,0,0,1-5-5.1v-30A5,5,0,0,1,211.46,431.41Z"/><path class="cls-1" d="M283.44,428.45c-.72-1.63-1.05-2-2.66-2h-9.46c-1.61,0-1.95.38-2.67,2l-8.85,21a12,12,0,0,0-.35,4.09V474a2.48,2.48,0,1,0,5,0v-8.78h23.26V474a2.48,2.48,0,1,0,5,0v-20.5a12.25,12.25,0,0,0-.33-4Zm4.24,31.85H264.41l.1-9.36L273,431.41h6.17l8.54,20Z"/><path class="cls-1" d="M349.06,426.52a3.17,3.17,0,0,0-3.45,1.5h0L334,446.31,322.43,428a3.17,3.17,0,0,0-3.46-1.51,2.24,2.24,0,0,0-1.56,2.4V474a2.48,2.48,0,1,0,5,0V437.69l8.25,12.22a5.35,5.35,0,0,1,.74,3.34v.83a2.63,2.63,0,1,0,5.27,0v-.83a5.34,5.34,0,0,1,.76-3.36l8.24-12.2V474a2.48,2.48,0,1,0,5,0V428.92A2.24,2.24,0,0,0,349.06,426.52Z"/><path class="cls-1" d="M406,431.41a2.48,2.48,0,1,0,0-5H377.8a2.55,2.55,0,0,0-2.48,2.49V474a2.55,2.55,0,0,0,2.48,2.49H406a2.49,2.49,0,1,0,0-5H380.29V454H406a2.49,2.49,0,1,0,0-5H380.29V431.41Z"/><path class="cls-1" d="M464.09,471.64H435.86a2.48,2.48,0,1,0,0,5h28.23a2.48,2.48,0,1,0,0-5Z"/><path class="cls-1" d="M515.34,428.45c-.72-1.63-1.05-2-2.67-2h-9.46c-1.61,0-1.95.38-2.67,2l-8.85,21a12,12,0,0,0-.35,4.09V474a2.48,2.48,0,1,0,5,0v-8.78h23.26V474a2.48,2.48,0,1,0,5,0v-20.5a12.25,12.25,0,0,0-.33-4Zm4.24,31.85H496.32l.1-9.36,8.44-19.54H511l8.55,20Z"/><path class="cls-1" d="M580,431.41a2.48,2.48,0,1,0,0-5H551.81a2.48,2.48,0,1,0,0,5h11.63v40.23H551.81a2.48,2.48,0,1,0,0,5H580a2.48,2.48,0,1,0,0-5H568.41V431.41Z"/><path class="cls-1" d="M638,471.64H609.79a2.48,2.48,0,1,0,0,5H638a2.48,2.48,0,1,0,0-5Z"/><path class="cls-1" d="M696,426.42a2.34,2.34,0,0,0-2.48,2.51v36.59l-23.3-37.57a3.19,3.19,0,0,0-3.45-1.4,2.05,2.05,0,0,0-1.49,2.24v45.35a2.49,2.49,0,0,0,5,0V437.55L693.62,475a3.24,3.24,0,0,0,3.45,1.4,2.06,2.06,0,0,0,1.41-2.23V428.92A2.34,2.34,0,0,0,696,426.42Z"/><path class="cls-1" d="M746.39,426.44H733.25a10,10,0,0,0-10,10v30a10,10,0,0,0,10,10.07h13.14a10,10,0,0,0,10-10.07v-30A10,10,0,0,0,746.39,426.44Zm5,40a5.13,5.13,0,0,1-5,5.1H733.25a5.13,5.13,0,0,1-5-5.1v-30a5,5,0,0,1,5-5h13.14a5,5,0,0,1,5,5Z"/><path class="cls-1" d="M802.56,426.44H783.72a2.37,2.37,0,0,0-2.49,2.49V474a2.49,2.49,0,0,0,5,0V454h10.5l12.69,15.46V474a2.48,2.48,0,1,0,5,0v-2.4c0-3.63-.08-4.2-2.26-6.85l-8.81-10.66,2-.47a12,12,0,0,0,9.15-11.6v-3.75A11.88,11.88,0,0,0,802.56,426.44Zm6.9,15.62a6.94,6.94,0,0,1-6.9,7H786.2V431.41h16.36a6.91,6.91,0,0,1,6.9,6.9Z"/><path class="cls-1" d="M869.92,426.44H841.69a2.39,2.39,0,0,0-1.88.75,2.62,2.62,0,0,0-.62,1.74,2.34,2.34,0,0,0,2.5,2.48h11.63v42.72a2.49,2.49,0,1,0,5,0V431.41h11.63a2.48,2.48,0,1,0,0-5Z"/><path class="cls-1" d="M927.9,426.42a2.34,2.34,0,0,0-2.49,2.5V449H902.16V428.92a2.49,2.49,0,1,0-5,0V474a2.49,2.49,0,1,0,5,0V454h23.26v20a2.49,2.49,0,1,0,5,0V428.92A2.34,2.34,0,0,0,927.9,426.42Z"/><path class="cls-1" d="M1192.68,471.64h-235a2.48,2.48,0,1,0,0,5h235a2.48,2.48,0,1,0,0-5Z"/><path class="cls-1" d="M1247.81,471.56h-11.63V428.85a2.62,2.62,0,0,0-2.49-2.49h-14.12a2.49,2.49,0,1,0,0,5h11.63v40.23h-11.63a2.49,2.49,0,1,0,0,5h28.23a2.49,2.49,0,1,0,0-5Z"/><path class="cls-1" d="M1305.78,426.44h-28.23a2.4,2.4,0,0,0-1.88.75,2.62,2.62,0,0,0-.62,1.74,2.34,2.34,0,0,0,2.51,2.48h25.75v7.5l-18.23,28.17c-.77,1.19-.77,2.94-.77,4.64V474a2.49,2.49,0,0,0,5,0v-4.13l.2-.31,18-28.08a11.79,11.79,0,0,0,.77-4.94v-7.66A2.55,2.55,0,0,0,1305.78,426.44Z"/></svg>