<?xml version="1.0" encoding="utf-8"?>
<!-- Generator: Adobe Illustrator 20.0.0, SVG Export Plug-In . SVG Version: 6.00 Build 0)  -->
<svg version="1.1" id="Layer_1" xmlns="http://www.w3.org/2000/svg" xmlns:xlink="http://www.w3.org/1999/xlink" x="0px" y="0px"
	 viewBox="0 0 1500 500" style="enable-background:new 0 0 1500 500;" xml:space="preserve">
<style type="text/css">
	.st0{fill:#FFFFFF;}
</style>
<title>g_ai_n_logo</title>
<g>
	<path class="st0" d="M336.8,256.1h125.4v56.5c0,16.5-3.3,32.9-9.7,48.1h28.1c4.8-14.2,7.3-29.1,7.3-44.1v-86.8H336.8V256.1z"/>
	<rect x="1299.2" y="22.1" class="st0" width="25.7" height="338.5"/>
	<polygon class="st0" points="1024,22.1 1024,360.6 1049.7,360.6 1049.7,65.4 1234.8,360.6 1264.1,360.6 1051.6,22.1 	"/>
	<path class="st0" d="M336.8,47.8c46.4,0,86.5,25.7,108.5,63.3L467.9,98c-26.3-45.2-75.3-75.9-131.1-75.9
		c-84,0-151.8,67.7-151.8,151.1v138.6c0,16.6,2.7,33,8,48.7h27.5c-6.5-15.4-9.8-32-9.8-48.7V173.3
		C210.8,104.3,267.2,47.8,336.8,47.8z"/>
	<path class="st0" d="M669.7,22.1L557.2,360.6h264.5L709.2,22.1H669.7z M613.2,323.8l75.9-228.9l76.5,228.9L613.2,323.8z"/>
	<rect x="895.1" y="22.1" class="st0" width="41.4" height="338.5"/>
</g>
<g>
	<path class="st0" d="M259.4,414.3h17.9c3.8,0,6.8,3.1,6.8,6.8c0,1.9,1.5,3.4,3.4,3.4s3.4-1.5,3.4-3.4c0-7.5-6.1-13.6-13.6-13.6
		h-17.9c-7.5,0-13.6,6.1-13.6,13.6V462c-0.1,7.5,6,13.7,13.5,13.7c0,0,0.1,0,0.1,0h17.9c7.5,0,13.6-6.1,13.6-13.6c0,0,0-0.1,0-0.1
		v-20.3c0-1.9-1.5-3.4-3.4-3.4h-13.3c-1-0.1-1.9,0.3-2.6,1c-0.6,0.7-0.9,1.5-0.8,2.4c-0.1,1.8,1.2,3.3,3,3.4c0.1,0,0.3,0,0.4,0h9.9
		v17c0,3.8-3,6.9-6.8,7h-17.9c-3.8-0.1-6.8-3.2-6.8-7v-40.9C252.6,417.4,255.6,414.3,259.4,414.3
		C259.4,414.3,259.4,414.3,259.4,414.3z"/>
	<path class="st0" d="M357.6,410.2c-1-2.2-1.4-2.7-3.6-2.7h-12.9c-2.2,0-2.7,0.5-3.6,2.7l-12.1,28.6c-0.5,1.8-0.6,3.7-0.5,5.6v27.9
		c0,1.9,1.5,3.4,3.4,3.4s3.4-1.5,3.4-3.4v-12h31.7v12c0,1.9,1.5,3.4,3.4,3.4s3.4-1.5,3.4-3.4v-28c0.2-1.8,0-3.7-0.4-5.5L357.6,410.2
		z M363.4,453.7h-31.7l0.1-12.8l11.6-26.6h8.4l11.6,27.3L363.4,453.7z"/>
	<path class="st0" d="M447.1,407.6c-1.8-0.4-3.8,0.4-4.7,2l0,0l-15.8,24.9l-15.8-25c-0.9-1.7-2.9-2.5-4.7-2.1
		c-1.4,0.4-2.3,1.8-2.1,3.3v61.5c0,1.9,1.5,3.4,3.4,3.4s3.4-1.5,3.4-3.4v-49.5l11.3,16.7c0.8,1.4,1.2,3,1,4.6v1.1
		c0,2,1.6,3.6,3.6,3.6c2,0,3.6-1.6,3.6-3.6v-1.1c-0.2-1.6,0.2-3.2,1-4.6l11.2-16.6v49.5c0,1.9,1.5,3.4,3.4,3.4s3.4-1.5,3.4-3.4
		v-61.5C449.4,409.4,448.5,408,447.1,407.6z"/>
	<path class="st0" d="M524.7,414.3c1.9,0,3.4-1.5,3.4-3.4c0-1.9-1.5-3.4-3.4-3.4l0,0h-38.5c-1.9,0.1-3.3,1.5-3.4,3.4v61.5
		c0,1.9,1.5,3.3,3.4,3.4h38.5c1.9,0,3.4-1.5,3.4-3.4s-1.5-3.4-3.4-3.4h-35.1v-23.9h35.1c1.9,0,3.4-1.5,3.4-3.4s-1.5-3.4-3.4-3.4
		h-35.1v-24H524.7z"/>
	<path class="st0" d="M623.1,469.1h-56.7c-1.9,0-3.4,1.5-3.4,3.4s1.5,3.4,3.4,3.4h56.7c1.9,0,3.4-1.5,3.4-3.4S625,469.1,623.1,469.1
		z"/>
	<path class="st0" d="M692,410.2c-1-2.2-1.4-2.7-3.6-2.7h-12.9c-2.2,0-2.7,0.5-3.6,2.7l-12.1,28.6c-0.5,1.8-0.6,3.7-0.5,5.6v27.9
		c0,1.9,1.5,3.4,3.4,3.4s3.4-1.5,3.4-3.4v-12h31.7v12c0,1.9,1.5,3.4,3.4,3.4s3.4-1.5,3.4-3.4v-28c0.2-1.8,0-3.7-0.5-5.5L692,410.2z
		 M697.8,453.7h-31.7l0.1-12.8l11.5-26.6h8.4l11.7,27.3L697.8,453.7z"/>
	<path class="st0" d="M780.2,414.3c1.9,0,3.4-1.5,3.4-3.4c0-1.9-1.5-3.4-3.4-3.4h-38.4c-1.9,0-3.4,1.5-3.4,3.4
		c0,1.9,1.5,3.4,3.4,3.4h15.9v54.9h-15.9c-1.9,0-3.4,1.5-3.4,3.4s1.5,3.4,3.4,3.4h38.4c1.9,0,3.4-1.5,3.4-3.4s-1.5-3.4-3.4-3.4
		h-15.8v-54.9H780.2z"/>
	<path class="st0" d="M878.4,469.1h-56.7c-1.9,0-3.4,1.5-3.4,3.4s1.5,3.4,3.4,3.4h56.7c1.9,0,3.4-1.5,3.4-3.4
		S880.3,469.1,878.4,469.1z"/>
	<path class="st0" d="M956.5,407.5c-1.8-0.1-3.3,1.2-3.4,3c0,0.1,0,0.3,0,0.4v49.9l-31.8-51.2c-1-1.6-2.9-2.3-4.7-1.9
		c-1.3,0.4-2.2,1.7-2,3.1v61.8c0,1.9,1.5,3.4,3.4,3.4c1.9,0,3.4-1.5,3.4-3.4v-49.9l31.8,51.1c1,1.6,2.9,2.3,4.7,1.9
		c1.3-0.4,2.1-1.7,1.9-3v-61.7c0.1-1.8-1.2-3.3-3-3.4C956.8,407.5,956.7,407.5,956.5,407.5z"/>
	<path class="st0" d="M1025.3,407.5h-17.9c-7.5,0-13.6,6.1-13.6,13.6v40.9c-0.1,7.5,6,13.7,13.5,13.7c0,0,0.1,0,0.1,0h17.9
		c7.5,0,13.6-6.1,13.6-13.6c0,0,0-0.1,0-0.1v-40.9C1038.9,413.6,1032.8,407.5,1025.3,407.5z M1032.1,462.1c0,3.8-3,6.9-6.8,7h-17.9
		c-3.8-0.1-6.8-3.2-6.8-7v-40.9c0-3.8,3.1-6.8,6.8-6.8h17.9c3.8,0,6.8,3.1,6.8,6.8V462.1z"/>
	<path class="st0" d="M1101.8,407.5h-25.7c-1.8-0.1-3.3,1.3-3.4,3.1c0,0.1,0,0.2,0,0.3v61.5c0,1.9,1.5,3.4,3.4,3.4
		c1.9,0,3.4-1.5,3.4-3.4v-27.3h14.3l17.3,21.1v6.2c0,1.9,1.5,3.4,3.4,3.4c1.9,0,3.4-1.5,3.4-3.4v-3.3c0-5-0.1-5.7-3.1-9.3l-12-14.5
		l2.7-0.6c7.3-1.8,12.4-8.3,12.5-15.8v-5.1C1118.1,414.7,1110.8,407.5,1101.8,407.5C1101.9,407.5,1101.9,407.5,1101.8,407.5z
		 M1111.3,428.8c0,5.2-4.2,9.5-9.4,9.5c0,0,0,0,0,0h-22.3v-24.1h22.3c5.2,0,9.4,4.2,9.4,9.4V428.8z"/>
	<path class="st0" d="M1193.7,407.5h-38.5c-1-0.1-1.9,0.3-2.6,1c-0.6,0.7-0.9,1.5-0.8,2.4c-0.1,1.8,1.2,3.3,3,3.4c0.1,0,0.3,0,0.4,0
		h15.9v58.3c0,1.9,1.5,3.4,3.4,3.4s3.4-1.5,3.4-3.4v-58.3h15.9c1.9,0,3.4-1.5,3.4-3.4C1197.2,409,1195.6,407.5,1193.7,407.5
		L1193.7,407.5z"/>
	<path class="st0" d="M1272.8,407.5c-1.8-0.1-3.3,1.2-3.4,3c0,0.1,0,0.3,0,0.4v27.4h-31.7v-27.4c0-1.9-1.5-3.4-3.4-3.4
		s-3.4,1.5-3.4,3.4v61.5c0,1.9,1.5,3.4,3.4,3.4s3.4-1.5,3.4-3.4v-27.3h31.7v27.3c0,1.9,1.5,3.4,3.4,3.4c1.9,0,3.4-1.5,3.4-3.4v-61.5
		c0.1-1.8-1.2-3.3-3-3.4C1273.1,407.5,1272.9,407.5,1272.8,407.5z"/>
</g>
</svg>
