<svg id="Layer_1" data-name="Layer 1" xmlns="http://www.w3.org/2000/svg" viewBox="0 0 1500 500"><defs><style>.cls-1{fill:#fff;}</style></defs><title>g_AI_n_small_logo</title><path class="cls-1" d="M219.56,333.23H378.24v71.41A156.32,156.32,0,0,1,366,465.46h35.57a175.39,175.39,0,0,0,9.22-55.78V299.89H219.56Z"/><rect class="cls-1" x="1439.48" y="37.29" width="32.52" height="428.16"/><polygon class="cls-1" points="1088.81 37.29 1088.81 465.46 1121.34 465.46 1121.34 92.04 1355.38 465.46 1392.5 465.46 1123.72 37.29 1088.81 37.29"/><path class="cls-1" d="M219.56,69.83c58.71,0,109.48,32.52,137.25,80.13l28.58-16.7c-33.32-57.13-95.2-96-165.81-96-106.26,0-192,85.69-192,191.2V403.84A192.54,192.54,0,0,0,37.7,465.46H72.54a158.12,158.12,0,0,1-12.41-61.63V228.5C60.1,141.22,131.5,69.83,219.56,69.83Z"/><path class="cls-1" d="M640.59,37.29,498.33,465.46H832.88L690.6,37.29ZM569.17,418.9l96-289.57L762,418.91Z"/><rect class="cls-1" x="925.71" y="37.29" width="52.37" height="428.16"/></svg>