<svg id="Layer_1" data-name="Layer 1" xmlns="http://www.w3.org/2000/svg" viewBox="0 0 500 500"><defs><style>.cls-1{fill:#540787;}.cls-2{fill:#380459;}.cls-3{fill:#8422c7;}.cls-4{fill:#fff;}</style></defs><title>formicon</title><path class="cls-1" d="M322.71,31.83l-.78-.78H113.51A40.9,40.9,0,0,0,72.61,72V428.8a40.9,40.9,0,0,0,40.9,40.9H387a40.9,40.9,0,0,0,40.9-40.9V243L322.71,137.79Z"/><polygon class="cls-2" points="322.71 137.79 427.89 242.97 427.89 137.79 322.71 137.79"/><polygon class="cls-3" points="322.71 31.83 322.71 137.79 427.89 137.79 427.89 137.01 322.71 31.83"/><rect class="cls-4" x="203.5" y="182.2" width="165.95" height="27.27"/><circle class="cls-4" cx="148.96" cy="195.84" r="21.82"/><rect class="cls-4" x="203.5" y="334.91" width="165.95" height="27.27"/><circle class="cls-4" cx="148.96" cy="348.55" r="21.82"/><rect class="cls-4" x="203.5" y="258.56" width="165.95" height="27.27"/><circle class="cls-4" cx="148.96" cy="272.19" r="21.82"/></svg>